<svg width="16" height="16" viewBox="0 0 16 16" fill="none" xmlns="http://www.w3.org/2000/svg">
<g clip-path="url(#clip0_8012_1561)">
<path d="M14.9921 8.13722C14.9921 7.53634 14.9434 7.09785 14.8378 6.64313H7.97595V9.35523H12.0037C11.9225 10.0292 11.484 11.0442 10.5096 11.7263L10.4959 11.8171L12.6655 13.4978L12.8158 13.5128C14.1963 12.2379 14.9921 10.3621 14.9921 8.13722Z" fill="#4285F4"/>
<path d="M7.97592 15.283C9.94919 15.283 11.6058 14.6333 12.8158 13.5128L10.5095 11.7263C9.89236 12.1567 9.06405 12.4571 7.97592 12.4571C6.04323 12.4571 4.40289 11.1823 3.81815 9.42023L3.73244 9.4275L1.47646 11.1733L1.44696 11.2554C2.64879 13.6427 5.11745 15.283 7.97592 15.283Z" fill="#34A853"/>
<path d="M3.81817 9.42021C3.66388 8.96548 3.57459 8.47824 3.57459 7.97481C3.57459 7.47133 3.66388 6.98414 3.81005 6.52942L3.80596 6.43257L1.52171 4.65869L1.44698 4.69424C0.951642 5.68491 0.667419 6.79739 0.667419 7.97481C0.667419 9.15223 0.951642 10.2647 1.44698 11.2553L3.81817 9.42021Z" fill="#FBBC05"/>
<path d="M7.97592 3.49248C9.34827 3.49248 10.274 4.08525 10.8019 4.58062L12.8645 2.5668C11.5977 1.38938 9.94919 0.666687 7.97592 0.666687C5.11745 0.666687 2.64879 2.30695 1.44696 4.69425L3.81004 6.52944C4.40289 4.76736 6.04323 3.49248 7.97592 3.49248Z" fill="#EB4335"/>
</g>
<defs>
<clipPath id="clip0_8012_1561">
<rect width="14.333" height="14.6667" fill="white" transform="translate(0.666687 0.666687)"/>
</clipPath>
</defs>
</svg>
